<svg width="134" height="134" viewBox="0 0 134 134" fill="none" xmlns="http://www.w3.org/2000/svg">
<g clip-path="url(#clip0_116_120)">
<path d="M0 61.3333V104H66.6667H133.333V61.3333V18.6667H66.6667H0V61.3333ZM128 61.3333V98.6667H66.6667H5.33333V61.3333V24H66.6667H128V61.3333Z" fill="#737373"/>
<path d="M53.3333 62.5333C53.3333 72.1333 53.8666 80.1333 54.3999 80.5333C55.5999 81.2 84.3999 64.6666 84.9333 63.0666C85.3333 61.8666 57.1999 45.3333 54.7999 45.3333C53.7333 45.3333 53.3333 50.6666 53.3333 62.5333Z" fill="#737373"/>
<path d="M27.3332 110.8C26.7999 111.6 26.9332 112.8 27.5999 113.467C28.2666 114.133 44.6666 114.533 66.7999 114.4C99.4666 114 104.667 113.733 104.667 112C104.667 110.267 99.3332 110 66.3999 109.6C39.5999 109.333 27.8666 109.733 27.3332 110.8Z" fill="#737373"/>
</g>
<defs>
<clipPath id="clip0_116_120">
<rect width="133.333" height="133.333" fill="white"/>
</clipPath>
</defs>
</svg>
