<svg width="134" height="134" viewBox="0 0 134 134" fill="none" xmlns="http://www.w3.org/2000/svg">
<g clip-path="url(#clip0_116_116)">
<path d="M0 61.3333V104H66.6667H133.333V61.3333V18.6667H66.6667H0V61.3333ZM71.6 52.8C80 57.7333 86.5333 62.4 86.2667 63.2C85.6 65.0667 55.6 82.5333 54.4 81.7333C52.6667 80.8 53.0667 44 54.8 44C55.7333 44 63.2 48 71.6 52.8Z" fill="#FA5252"/>
<path d="M28.6667 110.8C28.1334 111.6 28.2667 112.8 28.9334 113.467C29.6001 114.133 45.7334 114.533 67.4667 114.4C99.4667 114 104.667 113.733 104.667 112C104.667 110.267 99.4667 110 67.0667 109.6C40.8001 109.333 29.2001 109.733 28.6667 110.8Z" fill="#FA5252"/>
</g>
<defs>
<clipPath id="clip0_116_116">
<rect width="133.333" height="133.333" fill="white"/>
</clipPath>
</defs>
</svg>
